<?xml version="1.0" standalone="no"?><svg xmlns="http://www.w3.org/2000/svg" viewBox="0 0 1440 320"><path fill="#cd7f32" fill-opacity="1" d="M0,288L17.1,288C34.3,288,69,288,103,245.3C137.1,203,171,117,206,117.3C240,117,274,203,309,218.7C342.9,235,377,181,411,144C445.7,107,480,85,514,80C548.6,75,583,85,617,122.7C651.4,160,686,224,720,229.3C754.3,235,789,181,823,165.3C857.1,149,891,171,926,197.3C960,224,994,256,1029,240C1062.9,224,1097,160,1131,133.3C1165.7,107,1200,117,1234,149.3C1268.6,181,1303,235,1337,229.3C1371.4,224,1406,160,1423,128L1440,96L1440,0L1422.9,0C1405.7,0,1371,0,1337,0C1302.9,0,1269,0,1234,0C1200,0,1166,0,1131,0C1097.1,0,1063,0,1029,0C994.3,0,960,0,926,0C891.4,0,857,0,823,0C788.6,0,754,0,720,0C685.7,0,651,0,617,0C582.9,0,549,0,514,0C480,0,446,0,411,0C377.1,0,343,0,309,0C274.3,0,240,0,206,0C171.4,0,137,0,103,0C68.6,0,34,0,17,0L0,0Z"></path></svg>